<svg width="202" height="127" viewBox="0 0 202 127" fill="none" xmlns="http://www.w3.org/2000/svg">
<mask id="path-1-inside-1_2189_184" fill="white">
<path d="M32.3039 36.9748C32.3162 38.7602 34.593 39.4849 35.8289 38.1482C37.3649 35.9821 39.1206 33.9886 40.8762 31.9951C41.9157 30.6816 42.9784 29.5638 44.2143 28.2272C50.267 22.1543 60.7369 23.1061 65.3969 30.4992C66.877 32.906 67.5714 35.4052 68.0925 38.1234C69.1239 45.1494 68.5605 52.1646 66.1597 58.8003C64.3359 63.5813 61.6799 68.0632 58.365 72.027C56.4362 74.2394 54.2876 76.2791 51.4338 77.4091C47.8175 78.8274 44.3853 78.4372 41.3104 76.0195C38.432 73.5787 37.6449 70.2962 38.2096 66.6561C38.6707 63.8223 40.1835 61.4603 41.916 59.271C44.3182 56.0103 46.9401 52.9222 49.562 49.8341C51.4677 47.4259 53.1537 44.845 53.9845 41.7692C54.3651 39.9375 54.7456 38.1059 54.7101 36.1247C54.5587 33.1644 52.4088 31.8291 49.3585 32.9823C46.3315 34.3312 43.5473 36.0486 41.4683 38.6758C39.0197 41.5449 36.8139 44.7826 34.6081 48.0203C33.2453 49.9675 32.1254 52.2832 30.9822 54.4031C30.4857 55.2557 29.7927 56.1314 29.2498 56.5924C28.5336 57.2723 27.5514 57.3879 26.4996 56.916C25.6675 56.6169 25.1587 55.6841 25.2391 54.6819C25.4929 53.4608 25.7466 52.2397 26.0003 51.0187C27.5349 45.4775 26.8855 39.9949 26.0397 34.5354C26.0165 34.3396 25.7969 34.1669 25.7969 34.1669C25.2417 32.8424 23.4273 32.6589 22.7575 33.7304C22.4111 34.1683 22.261 34.583 21.9145 35.0208C18.5083 41.5764 16.7431 48.5344 17.428 55.9983C17.7418 60.3292 18.6217 64.3949 19.1088 68.5069C19.5371 70.4419 19.9887 72.5726 20.0242 74.5539C20.0365 76.3392 19.8755 78.3436 19.0789 80.0256C16.9781 85.8319 10.1956 87.4243 5.51375 83.2104C3.7567 81.8288 2.73903 79.9632 1.8946 77.8787C0.205734 73.7096 -0.3045 69.4018 0.167455 64.9784C1.42377 57.0876 2.65689 49.001 4.94177 41.3862C6.24586 37.2619 7.76959 33.3104 10.1486 29.8538C11.6847 27.6876 13.4403 25.6942 15.2191 23.8965C16.8015 22.122 19.0892 21.2571 21.4001 20.5881C26.6343 19.3765 30.7145 21.8744 31.9301 27.0919C32.4048 29.4184 32.2902 31.8144 32.3721 34.1872C32.4649 34.9704 32.3844 35.9726 32.3039 36.9748Z"/>
<path d="M83.0408 26.4373C90.9802 27.8854 92.474 35.4526 85.6015 43.0117C84.8853 43.6916 84.3656 44.3484 83.8458 45.0052C73.7744 57.5071 83.1612 66.1308 82.8544 78.6748C82.8094 81.6582 81.343 84.4117 78.3855 86.3481C76.7103 87.3394 74.7923 87.9622 72.5851 87.8249C68.2171 87.9419 64.7494 85.5704 63.4766 81.5509C63.2106 80.9866 63.1642 80.595 63.1642 80.595C62.4235 77.7041 62.7345 75.285 63.6348 72.7966C64.5692 68.9144 66.4749 66.5062 68.9112 61.8517C74.1304 52.1047 71.5711 38.9053 71.8125 35.8988C71.9271 33.5029 72.4809 31.4523 74.2598 29.6547C76.5351 27.0044 79.5854 25.8513 83.0408 26.4373Z"/>
<path d="M154.829 15.1463C162.796 20.324 161.667 31.2405 154.262 35.4152C152.836 36.3191 150.818 36.3397 149.392 37.2437C130.914 47.3706 124.694 76.282 119.514 115.856C118.293 125.381 104.776 135.07 92.7114 116.245C90.3067 112.519 80.586 99.0451 81.787 91.3375C83.1304 82.391 99.888 78.4688 103.68 96.4117C105.75 105.246 115.821 77.3394 116.31 75.8262C118.234 70.5861 116.257 66.9713 111.093 70.2724C108.933 71.5319 99.6227 75.3006 93.7035 73.1182C87.1629 70.8648 82.965 66.306 83.2798 59.1875C83.4016 55.938 84.3791 52.9117 85.9781 49.9565C89.4408 43.3859 93.9632 38.0032 99.9731 33.9202C104.598 30.934 109.222 27.9478 113.929 25.3476C120.876 21.8736 127.864 18.5927 134.852 15.3117C138.865 13.2598 143.317 12.325 147.667 12.8219C150.346 13.0652 152.527 13.8164 154.829 15.1463ZM135.283 34.5649C135.588 34.0978 135.578 33.0924 135.262 32.5543C134.946 32.0161 134.243 31.5593 133.622 31.4883C132.613 31.4986 131.452 31.7425 130.484 31.9457C119.818 35.999 109.673 41.5551 100.75 49.0709C99.1707 50.2084 97.9485 52.0771 96.8791 53.7121C96.268 54.6464 95.8912 55.7331 95.5552 57.0126C95.3008 58.678 96.33 60.6783 97.96 60.739C99.7835 60.7591 101.373 60.6268 101.953 60.5049C107.872 58.859 112.038 56.5735 115.807 53.3641C121.073 48.6312 126.146 43.939 131.218 39.2468C132.757 37.9163 134.02 36.2406 135.283 34.5649Z"/>
<path d="M175.031 16.8315C173.895 16.3083 172.607 15.3712 171.667 16.6553C170.508 18.1134 171.534 19.6164 172.385 20.9016C173.563 22.8184 174.764 24.5392 175.964 26.2601C180.263 32.2941 184.563 38.328 188.862 44.362C189.561 45.2334 190.237 46.3007 190.695 47.5421C191.96 50.4605 190.626 53.4863 187.786 53.9635C186.781 54.05 185.602 53.9186 184.619 53.8091C177.171 52.7811 169.744 53.3426 162.839 56.3431C161.594 56.7996 160.523 57.4739 159.322 57.5385C157.508 57.7333 155.673 58.1241 154.123 57.753C150.803 57.1848 148.248 55.1147 147.268 51.4344C146.112 47.5362 147.098 44.0748 149.589 41.3764C151.185 39.5702 153.086 38.5916 155.14 38.0267C158.395 37.3973 161.781 37.3776 165.079 38.1418C167.394 38.7964 169.512 39.4292 171.827 40.0838C173.181 40.433 174.535 40.7822 176.85 41.4369C176.065 39.5639 171.722 33.9218 169.757 31.9174C168.185 29.9568 166.417 27.9743 164.846 26.0137C162.969 23.2255 161.551 19.8933 160.964 16.2567C160.289 11.6185 161.515 7.7871 164.619 4.95845C165.952 3.71818 167.438 2.89171 169.12 2.08713C177.008 -0.803875 184.981 -0.907793 192.885 3.14701C194.763 4.14976 196.597 5.54441 198.235 6.91717C199.676 8.26803 200.679 9.967 201.443 12.036C202.772 16.152 201.678 20.5931 198.64 22.834C196.454 24.5745 194.204 25.1174 191.474 24.6149C188.722 24.3084 185.861 23.1962 183.241 21.7139C180.446 20.0139 177.848 18.3357 175.031 16.8315Z"/>
</mask>
<path d="M32.3039 36.9748C32.3162 38.7602 34.593 39.4849 35.8289 38.1482C37.3649 35.9821 39.1206 33.9886 40.8762 31.9951C41.9157 30.6816 42.9784 29.5638 44.2143 28.2272C50.267 22.1543 60.7369 23.1061 65.3969 30.4992C66.877 32.906 67.5714 35.4052 68.0925 38.1234C69.1239 45.1494 68.5605 52.1646 66.1597 58.8003C64.3359 63.5813 61.6799 68.0632 58.365 72.027C56.4362 74.2394 54.2876 76.2791 51.4338 77.4091C47.8175 78.8274 44.3853 78.4372 41.3104 76.0195C38.432 73.5787 37.6449 70.2962 38.2096 66.6561C38.6707 63.8223 40.1835 61.4603 41.916 59.271C44.3182 56.0103 46.9401 52.9222 49.562 49.8341C51.4677 47.4259 53.1537 44.845 53.9845 41.7692C54.3651 39.9375 54.7456 38.1059 54.7101 36.1247C54.5587 33.1644 52.4088 31.8291 49.3585 32.9823C46.3315 34.3312 43.5473 36.0486 41.4683 38.6758C39.0197 41.5449 36.8139 44.7826 34.6081 48.0203C33.2453 49.9675 32.1254 52.2832 30.9822 54.4031C30.4857 55.2557 29.7927 56.1314 29.2498 56.5924C28.5336 57.2723 27.5514 57.3879 26.4996 56.916C25.6675 56.6169 25.1587 55.6841 25.2391 54.6819C25.4929 53.4608 25.7466 52.2397 26.0003 51.0187C27.5349 45.4775 26.8855 39.9949 26.0397 34.5354C26.0165 34.3396 25.7969 34.1669 25.7969 34.1669C25.2417 32.8424 23.4273 32.6589 22.7575 33.7304C22.4111 34.1683 22.261 34.583 21.9145 35.0208C18.5083 41.5764 16.7431 48.5344 17.428 55.9983C17.7418 60.3292 18.6217 64.3949 19.1088 68.5069C19.5371 70.4419 19.9887 72.5726 20.0242 74.5539C20.0365 76.3392 19.8755 78.3436 19.0789 80.0256C16.9781 85.8319 10.1956 87.4243 5.51375 83.2104C3.7567 81.8288 2.73903 79.9632 1.8946 77.8787C0.205734 73.7096 -0.3045 69.4018 0.167455 64.9784C1.42377 57.0876 2.65689 49.001 4.94177 41.3862C6.24586 37.2619 7.76959 33.3104 10.1486 29.8538C11.6847 27.6876 13.4403 25.6942 15.2191 23.8965C16.8015 22.122 19.0892 21.2571 21.4001 20.5881C26.6343 19.3765 30.7145 21.8744 31.9301 27.0919C32.4048 29.4184 32.2902 31.8144 32.3721 34.1872C32.4649 34.9704 32.3844 35.9726 32.3039 36.9748Z" fill="#2C99FF"/>
<path d="M83.0408 26.4373C90.9802 27.8854 92.474 35.4526 85.6015 43.0117C84.8853 43.6916 84.3656 44.3484 83.8458 45.0052C73.7744 57.5071 83.1612 66.1308 82.8544 78.6748C82.8094 81.6582 81.343 84.4117 78.3855 86.3481C76.7103 87.3394 74.7923 87.9622 72.5851 87.8249C68.2171 87.9419 64.7494 85.5704 63.4766 81.5509C63.2106 80.9866 63.1642 80.595 63.1642 80.595C62.4235 77.7041 62.7345 75.285 63.6348 72.7966C64.5692 68.9144 66.4749 66.5062 68.9112 61.8517C74.1304 52.1047 71.5711 38.9053 71.8125 35.8988C71.9271 33.5029 72.4809 31.4523 74.2598 29.6547C76.5351 27.0044 79.5854 25.8513 83.0408 26.4373Z" fill="#2C99FF"/>
<path d="M154.829 15.1463C162.796 20.324 161.667 31.2405 154.262 35.4152C152.836 36.3191 150.818 36.3397 149.392 37.2437C130.914 47.3706 124.694 76.282 119.514 115.856C118.293 125.381 104.776 135.07 92.7114 116.245C90.3067 112.519 80.586 99.0451 81.787 91.3375C83.1304 82.391 99.888 78.4688 103.68 96.4117C105.75 105.246 115.821 77.3394 116.31 75.8262C118.234 70.5861 116.257 66.9713 111.093 70.2724C108.933 71.5319 99.6227 75.3006 93.7035 73.1182C87.1629 70.8648 82.965 66.306 83.2798 59.1875C83.4016 55.938 84.3791 52.9117 85.9781 49.9565C89.4408 43.3859 93.9632 38.0032 99.9731 33.9202C104.598 30.934 109.222 27.9478 113.929 25.3476C120.876 21.8736 127.864 18.5927 134.852 15.3117C138.865 13.2598 143.317 12.325 147.667 12.8219C150.346 13.0652 152.527 13.8164 154.829 15.1463ZM135.283 34.5649C135.588 34.0978 135.578 33.0924 135.262 32.5543C134.946 32.0161 134.243 31.5593 133.622 31.4883C132.613 31.4986 131.452 31.7425 130.484 31.9457C119.818 35.999 109.673 41.5551 100.75 49.0709C99.1707 50.2084 97.9485 52.0771 96.8791 53.7121C96.268 54.6464 95.8912 55.7331 95.5552 57.0126C95.3008 58.678 96.33 60.6783 97.96 60.739C99.7835 60.7591 101.373 60.6268 101.953 60.5049C107.872 58.859 112.038 56.5735 115.807 53.3641C121.073 48.6312 126.146 43.939 131.218 39.2468C132.757 37.9163 134.02 36.2406 135.283 34.5649Z" fill="#2C99FF"/>
<path d="M175.031 16.8315C173.895 16.3083 172.607 15.3712 171.667 16.6553C170.508 18.1134 171.534 19.6164 172.385 20.9016C173.563 22.8184 174.764 24.5392 175.964 26.2601C180.263 32.2941 184.563 38.328 188.862 44.362C189.561 45.2334 190.237 46.3007 190.695 47.5421C191.96 50.4605 190.626 53.4863 187.786 53.9635C186.781 54.05 185.602 53.9186 184.619 53.8091C177.171 52.7811 169.744 53.3426 162.839 56.3431C161.594 56.7996 160.523 57.4739 159.322 57.5385C157.508 57.7333 155.673 58.1241 154.123 57.753C150.803 57.1848 148.248 55.1147 147.268 51.4344C146.112 47.5362 147.098 44.0748 149.589 41.3764C151.185 39.5702 153.086 38.5916 155.14 38.0267C158.395 37.3973 161.781 37.3776 165.079 38.1418C167.394 38.7964 169.512 39.4292 171.827 40.0838C173.181 40.433 174.535 40.7822 176.85 41.4369C176.065 39.5639 171.722 33.9218 169.757 31.9174C168.185 29.9568 166.417 27.9743 164.846 26.0137C162.969 23.2255 161.551 19.8933 160.964 16.2567C160.289 11.6185 161.515 7.7871 164.619 4.95845C165.952 3.71818 167.438 2.89171 169.12 2.08713C177.008 -0.803875 184.981 -0.907793 192.885 3.14701C194.763 4.14976 196.597 5.54441 198.235 6.91717C199.676 8.26803 200.679 9.967 201.443 12.036C202.772 16.152 201.678 20.5931 198.64 22.834C196.454 24.5745 194.204 25.1174 191.474 24.6149C188.722 24.3084 185.861 23.1962 183.241 21.7139C180.446 20.0139 177.848 18.3357 175.031 16.8315Z" fill="#2C99FF"/>
<path d="M32.3039 36.9748C32.3162 38.7602 34.593 39.4849 35.8289 38.1482C37.3649 35.9821 39.1206 33.9886 40.8762 31.9951C41.9157 30.6816 42.9784 29.5638 44.2143 28.2272C50.267 22.1543 60.7369 23.1061 65.3969 30.4992C66.877 32.906 67.5714 35.4052 68.0925 38.1234C69.1239 45.1494 68.5605 52.1646 66.1597 58.8003C64.3359 63.5813 61.6799 68.0632 58.365 72.027C56.4362 74.2394 54.2876 76.2791 51.4338 77.4091C47.8175 78.8274 44.3853 78.4372 41.3104 76.0195C38.432 73.5787 37.6449 70.2962 38.2096 66.6561C38.6707 63.8223 40.1835 61.4603 41.916 59.271C44.3182 56.0103 46.9401 52.9222 49.562 49.8341C51.4677 47.4259 53.1537 44.845 53.9845 41.7692C54.3651 39.9375 54.7456 38.1059 54.7101 36.1247C54.5587 33.1644 52.4088 31.8291 49.3585 32.9823C46.3315 34.3312 43.5473 36.0486 41.4683 38.6758C39.0197 41.5449 36.8139 44.7826 34.6081 48.0203C33.2453 49.9675 32.1254 52.2832 30.9822 54.4031C30.4857 55.2557 29.7927 56.1314 29.2498 56.5924C28.5336 57.2723 27.5514 57.3879 26.4996 56.916C25.6675 56.6169 25.1587 55.6841 25.2391 54.6819C25.4929 53.4608 25.7466 52.2397 26.0003 51.0187C27.5349 45.4775 26.8855 39.9949 26.0397 34.5354C26.0165 34.3396 25.7969 34.1669 25.7969 34.1669C25.2417 32.8424 23.4273 32.6589 22.7575 33.7304C22.4111 34.1683 22.261 34.583 21.9145 35.0208C18.5083 41.5764 16.7431 48.5344 17.428 55.9983C17.7418 60.3292 18.6217 64.3949 19.1088 68.5069C19.5371 70.4419 19.9887 72.5726 20.0242 74.5539C20.0365 76.3392 19.8755 78.3436 19.0789 80.0256C16.9781 85.8319 10.1956 87.4243 5.51375 83.2104C3.7567 81.8288 2.73903 79.9632 1.8946 77.8787C0.205734 73.7096 -0.3045 69.4018 0.167455 64.9784C1.42377 57.0876 2.65689 49.001 4.94177 41.3862C6.24586 37.2619 7.76959 33.3104 10.1486 29.8538C11.6847 27.6876 13.4403 25.6942 15.2191 23.8965C16.8015 22.122 19.0892 21.2571 21.4001 20.5881C26.6343 19.3765 30.7145 21.8744 31.9301 27.0919C32.4048 29.4184 32.2902 31.8144 32.3721 34.1872C32.4649 34.9704 32.3844 35.9726 32.3039 36.9748Z" stroke="#1C3A5A" stroke-width="4" mask="url(#path-1-inside-1_2189_184)"/>
<path d="M83.0408 26.4373C90.9802 27.8854 92.474 35.4526 85.6015 43.0117C84.8853 43.6916 84.3656 44.3484 83.8458 45.0052C73.7744 57.5071 83.1612 66.1308 82.8544 78.6748C82.8094 81.6582 81.343 84.4117 78.3855 86.3481C76.7103 87.3394 74.7923 87.9622 72.5851 87.8249C68.2171 87.9419 64.7494 85.5704 63.4766 81.5509C63.2106 80.9866 63.1642 80.595 63.1642 80.595C62.4235 77.7041 62.7345 75.285 63.6348 72.7966C64.5692 68.9144 66.4749 66.5062 68.9112 61.8517C74.1304 52.1047 71.5711 38.9053 71.8125 35.8988C71.9271 33.5029 72.4809 31.4523 74.2598 29.6547C76.5351 27.0044 79.5854 25.8513 83.0408 26.4373Z" stroke="#1C3A5A" stroke-width="4" mask="url(#path-1-inside-1_2189_184)"/>
<path d="M154.829 15.1463C162.796 20.324 161.667 31.2405 154.262 35.4152C152.836 36.3191 150.818 36.3397 149.392 37.2437C130.914 47.3706 124.694 76.282 119.514 115.856C118.293 125.381 104.776 135.07 92.7114 116.245C90.3067 112.519 80.586 99.0451 81.787 91.3375C83.1304 82.391 99.888 78.4688 103.68 96.4117C105.75 105.246 115.821 77.3394 116.31 75.8262C118.234 70.5861 116.257 66.9713 111.093 70.2724C108.933 71.5319 99.6227 75.3006 93.7035 73.1182C87.1629 70.8648 82.965 66.306 83.2798 59.1875C83.4016 55.938 84.3791 52.9117 85.9781 49.9565C89.4408 43.3859 93.9632 38.0032 99.9731 33.9202C104.598 30.934 109.222 27.9478 113.929 25.3476C120.876 21.8736 127.864 18.5927 134.852 15.3117C138.865 13.2598 143.317 12.325 147.667 12.8219C150.346 13.0652 152.527 13.8164 154.829 15.1463ZM135.283 34.5649C135.588 34.0978 135.578 33.0924 135.262 32.5543C134.946 32.0161 134.243 31.5593 133.622 31.4883C132.613 31.4986 131.452 31.7425 130.484 31.9457C119.818 35.999 109.673 41.5551 100.75 49.0709C99.1707 50.2084 97.9485 52.0771 96.8791 53.7121C96.268 54.6464 95.8912 55.7331 95.5552 57.0126C95.3008 58.678 96.33 60.6783 97.96 60.739C99.7835 60.7591 101.373 60.6268 101.953 60.5049C107.872 58.859 112.038 56.5735 115.807 53.3641C121.073 48.6312 126.146 43.939 131.218 39.2468C132.757 37.9163 134.02 36.2406 135.283 34.5649Z" stroke="#1C3A5A" stroke-width="4" mask="url(#path-1-inside-1_2189_184)"/>
<path d="M175.031 16.8315C173.895 16.3083 172.607 15.3712 171.667 16.6553C170.508 18.1134 171.534 19.6164 172.385 20.9016C173.563 22.8184 174.764 24.5392 175.964 26.2601C180.263 32.2941 184.563 38.328 188.862 44.362C189.561 45.2334 190.237 46.3007 190.695 47.5421C191.96 50.4605 190.626 53.4863 187.786 53.9635C186.781 54.05 185.602 53.9186 184.619 53.8091C177.171 52.7811 169.744 53.3426 162.839 56.3431C161.594 56.7996 160.523 57.4739 159.322 57.5385C157.508 57.7333 155.673 58.1241 154.123 57.753C150.803 57.1848 148.248 55.1147 147.268 51.4344C146.112 47.5362 147.098 44.0748 149.589 41.3764C151.185 39.5702 153.086 38.5916 155.14 38.0267C158.395 37.3973 161.781 37.3776 165.079 38.1418C167.394 38.7964 169.512 39.4292 171.827 40.0838C173.181 40.433 174.535 40.7822 176.85 41.4369C176.065 39.5639 171.722 33.9218 169.757 31.9174C168.185 29.9568 166.417 27.9743 164.846 26.0137C162.969 23.2255 161.551 19.8933 160.964 16.2567C160.289 11.6185 161.515 7.7871 164.619 4.95845C165.952 3.71818 167.438 2.89171 169.12 2.08713C177.008 -0.803875 184.981 -0.907793 192.885 3.14701C194.763 4.14976 196.597 5.54441 198.235 6.91717C199.676 8.26803 200.679 9.967 201.443 12.036C202.772 16.152 201.678 20.5931 198.64 22.834C196.454 24.5745 194.204 25.1174 191.474 24.6149C188.722 24.3084 185.861 23.1962 183.241 21.7139C180.446 20.0139 177.848 18.3357 175.031 16.8315Z" stroke="#1C3A5A" stroke-width="4" mask="url(#path-1-inside-1_2189_184)"/>
</svg>
